<svg width="35" height="35" viewBox="0 0 35 35" fill="none" xmlns="http://www.w3.org/2000/svg">
<path d="M20.6447 10.4209C20.7573 10.5535 20.8467 10.711 20.9077 10.8843C20.9686 11.0577 21 11.2435 21 11.4312C21 11.6188 20.9686 11.8047 20.9077 11.978C20.8467 12.1514 20.7573 12.3088 20.6447 12.4414L15.9309 18.0012L20.6447 23.5611C20.8719 23.829 20.9995 24.1924 20.9995 24.5713C20.9995 24.9502 20.8719 25.3136 20.6447 25.5816C20.4175 25.8495 20.1095 26 19.7882 26C19.4669 26 19.1589 25.8495 18.9317 25.5816L13.3553 19.0043C13.2427 18.8717 13.1533 18.7143 13.0923 18.5409C13.0314 18.3676 13 18.1818 13 17.9941C13 17.8064 13.0314 17.6206 13.0923 17.4472C13.1533 17.2739 13.2427 17.1164 13.3553 16.9839L18.9317 10.4066C19.3934 9.8621 20.1709 9.8621 20.6447 10.4209Z" fill="#989898"/>
</svg>
