<svg width="35" height="35" viewBox="0 0 35 35" fill="none" xmlns="http://www.w3.org/2000/svg">
<path d="M13.3553 10.4209C13.2427 10.5535 13.1533 10.711 13.0923 10.8843C13.0314 11.0577 13 11.2435 13 11.4312C13 11.6188 13.0314 11.8047 13.0923 11.978C13.1533 12.1514 13.2427 12.3088 13.3553 12.4414L18.0691 18.0012L13.3553 23.5611C13.1281 23.829 13.0005 24.1924 13.0005 24.5713C13.0005 24.9502 13.1281 25.3136 13.3553 25.5816C13.5825 25.8495 13.8905 26 14.2118 26C14.5331 26 14.8411 25.8495 15.0683 25.5816L20.6447 19.0043C20.7573 18.8717 20.8467 18.7143 20.9077 18.5409C20.9686 18.3676 21 18.1818 21 17.9941C21 17.8064 20.9686 17.6206 20.9077 17.4472C20.8467 17.2739 20.7573 17.1164 20.6447 16.9839L15.0683 10.4066C14.6066 9.8621 13.8291 9.8621 13.3553 10.4209Z" fill="#989898"/>
</svg>
