<?xml version="1.0" ?><svg viewBox="0 0 64 64" xmlns="http://www.w3.org/2000/svg"><defs><style>.cls-1{fill:#8bc4ff;}.cls-2{fill:#2e58ff;}</style></defs><title/><g id="attachment"><path class="cls-1" d="M30.19,58.5,7.84,36.15A20,20,0,0,1,36.12,7.87l24.7,24.69a4,4,0,0,1-5.66,5.66l-24-24a12,12,0,0,0-17,17L35.84,52.84a4,4,0,1,0,5.66-5.66L19.86,25.54a4,4,0,1,1,5.66-5.65L47.16,41.53a12,12,0,0,1-17,17Z"/><path class="cls-2" d="M38.67,64a13.85,13.85,0,0,1-9.9-4.09L6.43,37.56A22,22,0,0,1,37.54,6.45l24.69,24.7a6,6,0,1,1-8.48,8.48l-24-24A10,10,0,0,0,15.62,29.79L37.26,51.42a2,2,0,0,0,2.82,0,2,2,0,0,0,0-2.82L18.45,27a6,6,0,0,1,8.48-8.49L48.57,40.11C57.42,49,51,64,38.67,64ZM31.6,57.08A10,10,0,1,0,45.74,42.94L24.1,21.3a2,2,0,1,0-2.82,2.83L42.91,45.77a6,6,0,1,1-8.48,8.48L12.79,32.62a13.94,13.94,0,0,1-4.1-9.9c0-12.54,15.17-18.63,23.9-9.9l24,24A2,2,0,1,0,59.41,34L34.71,9.28A18,18,0,0,0,9.25,34.74Z"/></g></svg>